<?xml version="1.0" standalone="no"?>
<!DOCTYPE svg PUBLIC "-//W3C//DTD SVG 20010904//EN"
 "http://www.w3.org/TR/2001/REC-SVG-20010904/DTD/svg10.dtd">
<svg version="1.0" xmlns="http://www.w3.org/2000/svg"
 width="67.000000pt" height="24.000000pt" viewBox="0 0 67.000000 24.000000"
 preserveAspectRatio="xMidYMid meet">

<g transform="translate(0.000000,24.000000) scale(0.100000,-0.100000)"
fill="#000000" stroke="none">
<path d="M0 120 l0 -120 200 0 200 0 0 120 0 120 -200 0 -200 0 0 -120z"/>
<path d="M410 120 l0 -120 130 0 130 0 0 120 0 120 -130 0 -130 0 0 -120z m68
13 l10 -28 1 28 c1 26 2 27 59 26 31 -1 49 -3 40 -6 -10 -2 -18 -9 -18 -14 0
-5 8 -10 18 -10 16 -1 16 -2 0 -6 -33 -8 -20 -33 17 -33 36 0 47 13 20 24 -25
9 -19 46 8 46 17 0 19 -2 7 -10 -12 -7 -12 -12 -2 -22 6 -6 12 -20 12 -30 0
-15 -9 -18 -58 -18 -32 0 -63 5 -70 12 -9 9 -12 9 -12 0 0 -7 -9 -12 -20 -12
-11 0 -20 5 -20 10 0 14 -28 12 -33 -2 -2 -7 -8 -10 -12 -6 -11 10 15 78 30
78 7 0 18 -12 23 -27z"/>
<path d="M510 135 c0 -8 5 -15 10 -15 6 0 10 7 10 15 0 8 -4 15 -10 15 -5 0
-10 -7 -10 -15z"/>
</g>
</svg>
